<?xml version="1.0" encoding="utf-8"?>
<!-- Generator: Adobe Illustrator 16.2.1, SVG Export Plug-In . SVG Version: 6.00 Build 0)  -->
<!DOCTYPE svg PUBLIC "-//W3C//DTD SVG 1.1//EN" "http://www.w3.org/Graphics/SVG/1.1/DTD/svg11.dtd">
<svg version="1.1" id="Layer_1" xmlns="http://www.w3.org/2000/svg" xmlns:xlink="http://www.w3.org/1999/xlink" x="0px" y="0px"
	 width="72.5px" height="25.5px" viewBox="0 0 72.5 25.5" enable-background="new 0 0 72.5 25.5" xml:space="preserve">
<g>
	<path fill-rule="evenodd" clip-rule="evenodd" fill="#088377" d="M71.405,9.29c0.379-0.16,0.41-0.19,0.27-0.59
		c-0.8-2.28-3.8-3.51-6.35-2.44c-2.01,0.84-3.471,2.98-3.471,5.37c0,3.22,2.32,6.08,5.461,6.08c1.439,0,2.469-0.2,3.379-0.78
		c0.201-0.18,1.301-1.07,1.311-1.26c0-0.04-0.16,0.1-0.4,0.23c-0.709,0.379-1.77,0.52-2.609,0.539c-1.69,0.031-3.04-1.129-3.92-2.5
		c-0.57-0.89-0.93-1.899-1.021-2.979c-0.14-1.67,0.261-3.59,2.14-4.06c1.25-0.31,2.431,0.39,2.891,1.6
		c0.21,0.55,0.08,0.83-0.42,1.04l-4.52,1.89l1.539,0.099C67.524,10.77,69.575,10.05,71.405,9.29z"/>
	<path fill-rule="evenodd" clip-rule="evenodd" fill="#088377" d="M57.504,0h3.37c-0.47,0.31-0.62,0.43-0.83,0.75
		c-0.14,0.23-0.181,0.67-0.2,1.06c-0.199,4.52-0.08,9.07-0.109,13.59c0.02,1.229,0.5,1.08,2.1,1.029
		c-0.24,0.211-0.63,0.61-0.939,0.791c-1.431,0-2.811-0.031-4.25-0.031c0.549-0.569,0.819-0.93,0.789-2.33
		c0.03-4.719-0.16-9.25,0.131-13.799c-0.681,0.02-1.291,0.01-1.971,0.03C56.235,0.76,56.834,0.3,57.504,0z"/>
	<path fill-rule="evenodd" clip-rule="evenodd" fill="#088377" d="M52.625,10.53c0.26,1.56-0.14,3.041-1.54,3.43
		c-1.45,0.399-3.04-0.72-3.551-2.74c-0.559-2.21,0.021-3.61,1.381-4.03C50.514,6.68,52.235,8.14,52.625,10.53z M56.254,6.23
		l-1.439,0.94h-1.641c0.689,0.48,1.221,1.18,1.51,1.96c0.32,0.83,0.36,1.75,0.041,2.601c-0.301,0.799-0.9,1.49-1.791,2.01
		c-0.51,0.3-0.76,0.68-0.789,1.039c-0.08,1.051,1.199,1.82,1.939,2.381c1.63,1.22,2.26,3.22,1.189,5.16
		c-1.029,1.85-3.479,2.67-6.069,2.68c-3.229-0.01-5.271-1.5-5.37-3.52c-0.141-2.61,2.529-3.851,4.939-4.141
		c0.67-0.08,1.28-0.061,1.84-0.02c-0.85-0.57-1.17-1.721-0.729-2.48c0.11-0.199,0.04-0.13-0.18-0.1c-1.97,0.3-4-1-4.479-2.95
		c-0.24-0.99-0.091-2.03,0.289-2.84c0.82-1.76,2.631-2.74,4.65-2.74C52.254,6.21,54.194,6.22,56.254,6.23z M51.415,17.99
		c0.24,0.18,0.5,0.35,0.76,0.52c1.41,0.9,1.859,2,1.75,3.01c-0.141,1.23-1.311,2.19-3.311,2.311c-2.139,0.13-5.02-0.721-4.489-3.54
		c0.28-1.511,2.271-2.28,3.92-2.34C50.495,17.939,50.964,17.98,51.415,17.99z"/>
	<path fill-rule="evenodd" clip-rule="evenodd" fill="#088377" d="M41.584,11.9c0.22,2.209-0.52,4.27-2.5,4.729
		c-2.03,0.47-4.18-1.22-4.71-4.08c-0.59-3.15,0.38-5.22,2.29-5.73C38.934,6.22,41.245,8.51,41.584,11.9z M37.924,5.9
		c3.87,0,5.891,2.59,6.07,5.61c0.18,3.01-2.301,5.711-5.33,6.03c-3.64,0.39-6.82-2.13-6.82-5.8C31.844,8.52,34.574,5.9,37.924,5.9z"
		/>
	<path fill-rule="evenodd" clip-rule="evenodd" fill="#088377" d="M28.375,11.9c0.22,2.209-0.53,4.27-2.53,4.729
		c-2.05,0.47-4.23-1.22-4.77-4.08c-0.6-3.15,0.39-5.22,2.32-5.73C25.694,6.22,28.024,8.51,28.375,11.9z M24.674,5.9
		c3.91,0,5.95,2.59,6.13,5.61c0.19,3.01-2.32,5.711-5.38,6.03c-3.68,0.39-6.9-2.13-6.9-5.8C18.524,8.52,21.284,5.9,24.674,5.9z"/>
	<path fill-rule="evenodd" clip-rule="evenodd" fill="#088377" d="M14.955,4.29l1.75-1.8c-2.98-2.48-8.1-2.81-11.49-1.09
		c-2.95,1.5-5.1,4.48-5.21,7.8c-0.11,3.5,1.92,6.26,3.97,7.649c3.39,2.301,9.27,1.791,12.82-0.01l-0.01-0.33v-3.66l0.83-0.97h-5.16
		l-1.91,1.08l3.71-0.11v3.23c0,0.449,0.01,0.529-0.75,0.77c-1.06,0.28-2.25,0.34-3.34,0.24c-3.71-0.311-6.53-3.25-7.2-6.91
		c-0.64-3.48,1-6.77,3.76-8.13c1.35-0.66,2.97-0.97,4.72-0.41c1.1,0.35,2.1,0.99,2.97,1.87l-0.6,1.1L14.955,4.29z"/>
</g>
</svg>
